ffmpeg started on 2026-04-01 at 12:32:09
Report written to "D:\Convert\FFMetrics\reports\psnr_report-6.txt"
Log level: 32
Command line:
ffmpeg -hide_banner -nostdin -r 24000/1001 -i "F:\\Convert\\files\\[DC] Make Heroine ga Oosugiru - 07_Telegram_HEVC(288).mkv" -r 24000/1001 -i "F:\\Convert\\files\\[DC] Make Heroine ga Oosugiru - 07_Telegram.mp4" -lavfi "[0:v]settb=AVTB,setpts=PTS-STARTPTS,format=pix_fmts=yuv420p10le,fps=24000/1001,scale=1920:1080:flags=lanczos:param0=3:out_range=limited:out_color_matrix=bt709:out_chroma_loc=left,setsar=1/1,setdar=(1920/1080)*(1/1),colorspace=format=yuv420p10:range=tv:primaries=bt709:trc=bt709:space=bt709:fast=0[main];[1:v]settb=AVTB,setpts=PTS-STARTPTS,format=pix_fmts=yuv420p,fps=24000/1001,scale=1920:1080:flags=lanczos:param0=3:out_range=limited:out_color_matrix=bt709:out_chroma_loc=left,setsar=1/1,setdar=(1920/1080)*(1/1),colorspace=format=yuv420p:range=tv:primaries=bt709:trc=bt709:space=bt709:fast=0[ref];[main][ref]psnr=eof_action=endall:stats_file='D\\:/Convert/FFMetrics/logs/psnr_logfile-6.txt'" -f null -
Input #0, matroska,webm, from 'F:\Convert\files\[DC] Make Heroine ga Oosugiru - 07_Telegram_HEVC(288).mkv':
  Metadata:
    COMPATIBLE_BRANDS: isomiso2avc1mp41
    MAJOR_BRAND     : isom
    MINOR_VERSION   : 512
    ENCODER         : Lavf61.7.100
  Duration: 00:24:06.79, start: -0.021000, bitrate: 922 kb/s
  Stream #0:0: Video: hevc (Main 10), yuv420p10le(tv, bt709, progressive), 1920x1080 [SAR 1:1 DAR 16:9], 23.98 fps, 23.98 tbr, 1k tbn (default)
      Metadata:
        HANDLER_NAME    : VideoHandler
        VENDOR_ID       : [0][0][0][0]
        ENCODER         : Lavc61.19.100 libx265
        BPS             : 725042
        DURATION        : 00:24:06.569708333
        NUMBER_OF_FRAMES: 34683
        NUMBER_OF_BYTES : 131102928
        _STATISTICS_WRITING_APP: mkvpropedit v94.0 ('Initiate') 64-bit
        _STATISTICS_WRITING_DATE_UTC: 2026-03-30 16:08:18
        _STATISTICS_TAGS: BPS DURATION NUMBER_OF_FRAMES NUMBER_OF_BYTES
  Stream #0:1: Audio: aac (LC), 48000 Hz, stereo, fltp (default)
      Metadata:
        HANDLER_NAME    : SoundHandler
        VENDOR_ID       : [0][0][0][0]
        ENCODER         : Lavc61.19.100 aac
        BPS             : 193194
        DURATION        : 00:24:06.784000000
        NUMBER_OF_FRAMES: 67819
        NUMBER_OF_BYTES : 34938755
        _STATISTICS_WRITING_APP: mkvpropedit v94.0 ('Initiate') 64-bit
        _STATISTICS_WRITING_DATE_UTC: 2026-03-30 16:08:18
        _STATISTICS_TAGS: BPS DURATION NUMBER_OF_FRAMES NUMBER_OF_BYTES
Input #1, mov,mp4,m4a,3gp,3g2,mj2, from 'F:\Convert\files\[DC] Make Heroine ga Oosugiru - 07_Telegram.mp4':
  Metadata:
    major_brand     : isom
    minor_version   : 512
    compatible_brands: isomiso2avc1mp41
    encoder         : Lavf60.16.100
  Duration: 00:24:06.74, start: 0.000000, bitrate: 3764 kb/s
  Stream #1:0[0x1](und): Video: h264 (High) (avc1 / 0x31637661), yuv420p(tv, bt709, progressive), 1920x1080 [SAR 1:1 DAR 16:9], 3616 kb/s, 23.98 fps, 23.98 tbr, 24k tbn (default)
      Metadata:
        handler_name    : VideoHandler
        vendor_id       : [0][0][0][0]
        encoder         : Lavc60.31.102 h264_qsv
  Stream #1:1[0x2](und): Audio: aac (HE-AACv2) (mp4a / 0x6134706D), 48000 Hz, stereo, fltp, 144 kb/s (default)
      Metadata:
        handler_name    : SoundHandler
        vendor_id       : [0][0][0][0]
Stream mapping:
  Stream #0:0 (hevc) -> settb:default
  Stream #1:0 (h264) -> settb:default
  psnr:default -> Stream #0:0 (wrapped_avframe)
  Stream #0:1 -> #0:1 (aac (native) -> pcm_s16le (native))
Output #0, null, to 'pipe:':
  Metadata:
    COMPATIBLE_BRANDS: isomiso2avc1mp41
    MAJOR_BRAND     : isom
    MINOR_VERSION   : 512
    encoder         : Lavf61.7.100
  Stream #0:0: Video: wrapped_avframe, yuv420p10le(tv, bt709, progressive), 1920x1080 [SAR 1:1 DAR 16:9], q=2-31, 200 kb/s, 23.98 fps, 23.98 tbn
      Metadata:
        encoder         : Lavc61.19.100 wrapped_avframe
  Stream #0:1: Audio: pcm_s16le, 48000 Hz, stereo, s16, 1536 kb/s (default)
      Metadata:
        HANDLER_NAME    : SoundHandler
        VENDOR_ID       : [0][0][0][0]
        _STATISTICS_TAGS: BPS DURATION NUMBER_OF_FRAMES NUMBER_OF_BYTES
        BPS             : 193194
        DURATION        : 00:24:06.784000000
        NUMBER_OF_FRAMES: 67819
        NUMBER_OF_BYTES : 34938755
        _STATISTICS_WRITING_APP: mkvpropedit v94.0 ('Initiate') 64-bit
        _STATISTICS_WRITING_DATE_UTC: 2026-03-30 16:08:18
        encoder         : Lavc61.19.100 pcm_s16le
frame=  130 fps=0.0 q=-0.0 size=N/A time=00:00:05.42 bitrate=N/A speed=10.4x    frame=  314 fps=304 q=-0.0 size=N/A time=00:00:13.09 bitrate=N/A speed=12.7x    frame=  504 fps=326 q=-0.0 size=N/A time=00:00:21.02 bitrate=N/A speed=13.6x    frame=  697 fps=336 q=-0.0 size=N/A time=00:00:29.07 bitrate=N/A speed=  14x    frame=  884 fps=343 q=-0.0 size=N/A time=00:00:36.87 bitrate=N/A speed=14.3x    frame= 1016 fps=329 q=-0.0 size=N/A time=00:00:42.37 bitrate=N/A speed=13.7x    frame= 1181 fps=326 q=-0.0 size=N/A time=00:00:49.25 bitrate=N/A speed=13.6x    frame= 1339 fps=323 q=-0.0 size=N/A time=00:00:55.84 bitrate=N/A speed=13.5x    frame= 1488 fps=320 q=-0.0 size=N/A time=00:01:02.06 bitrate=N/A speed=13.3x    frame= 1630 fps=315 q=-0.0 size=N/A time=00:01:07.98 bitrate=N/A speed=13.1x    frame= 1782 fps=313 q=-0.0 size=N/A time=00:01:14.32 bitrate=N/A speed=13.1x    frame= 1943 fps=313 q=-0.0 size=N/A time=00:01:21.03 bitrate=N/A speed=  13x    frame= 2072 fps=308 q=-0.0 size=N/A time=00:01:26.41 bitrate=N/A speed=12.9x    frame= 2210 fps=305 q=-0.0 size=N/A time=00:01:32.17 bitrate=N/A speed=12.7x    frame= 2362 fps=305 q=-0.0 size=N/A time=00:01:38.51 bitrate=N/A speed=12.7x    frame= 2487 fps=301 q=-0.0 size=N/A time=00:01:43.72 bitrate=N/A speed=12.6x    frame= 2641 fps=301 q=-0.0 size=N/A time=00:01:50.15 bitrate=N/A speed=12.5x    frame= 2822 fps=303 q=-0.0 size=N/A time=00:01:57.70 bitrate=N/A speed=12.7x    frame= 2990 fps=305 q=-0.0 size=N/A time=00:02:04.70 bitrate=N/A speed=12.7x    frame= 3173 fps=307 q=-0.0 size=N/A time=00:02:12.34 bitrate=N/A speed=12.8x    frame= 3322 fps=306 q=-0.0 size=N/A time=00:02:18.55 bitrate=N/A speed=12.8x    frame= 3504 fps=308 q=-0.0 size=N/A time=00:02:26.14 bitrate=N/A speed=12.9x    frame= 3698 fps=311 q=-0.0 size=N/A time=00:02:34.23 bitrate=N/A speed=  13x    frame= 3891 fps=314 q=-0.0 size=N/A time=00:02:42.28 bitrate=N/A speed=13.1x    frame= 4089 fps=317 q=-0.0 size=N/A time=00:02:50.54 bitrate=N/A speed=13.2x    frame= 4287 fps=319 q=-0.0 size=N/A time=00:02:58.80 bitrate=N/A speed=13.3x    frame= 4473 fps=321 q=-0.0 size=N/A time=00:03:06.56 bitrate=N/A speed=13.4x    frame= 4670 fps=323 q=-0.0 size=N/A time=00:03:14.77 bitrate=N/A speed=13.5x    frame= 4874 fps=325 q=-0.0 size=N/A time=00:03:23.28 bitrate=N/A speed=13.6x    frame= 5054 fps=326 q=-0.0 size=N/A time=00:03:30.79 bitrate=N/A speed=13.6x    frame= 5247 fps=328 q=-0.0 size=N/A time=00:03:38.84 bitrate=N/A speed=13.7x    frame= 5450 fps=330 q=-0.0 size=N/A time=00:03:47.31 bitrate=N/A speed=13.8x    frame= 5642 fps=331 q=-0.0 size=N/A time=00:03:55.31 bitrate=N/A speed=13.8x    frame= 5840 fps=333 q=-0.0 size=N/A time=00:04:03.57 bitrate=N/A speed=13.9x    frame= 6035 fps=334 q=-0.0 size=N/A time=00:04:11.70 bitrate=N/A speed=13.9x    frame= 6231 fps=335 q=-0.0 size=N/A time=00:04:19.88 bitrate=N/A speed=  14x    frame= 6426 fps=337 q=-0.0 size=N/A time=00:04:28.01 bitrate=N/A speed=  14x    frame= 6624 fps=338 q=-0.0 size=N/A time=00:04:36.27 bitrate=N/A speed=14.1x    frame= 6822 fps=339 q=-0.0 size=N/A time=00:04:44.53 bitrate=N/A speed=14.1x    frame= 7014 fps=340 q=-0.0 size=N/A time=00:04:52.54 bitrate=N/A speed=14.2x    frame= 7197 fps=340 q=-0.0 size=N/A time=00:05:00.17 bitrate=N/A speed=14.2x    frame= 7391 fps=341 q=-0.0 size=N/A time=00:05:08.26 bitrate=N/A speed=14.2x    frame= 7581 fps=342 q=-0.0 size=N/A time=00:05:16.19 bitrate=N/A speed=14.2x    frame= 7767 fps=342 q=-0.0 size=N/A time=00:05:23.94 bitrate=N/A speed=14.3x    frame= 7963 fps=343 q=-0.0 size=N/A time=00:05:32.12 bitrate=N/A speed=14.3x    frame= 8155 fps=343 q=-0.0 size=N/A time=00:05:40.13 bitrate=N/A speed=14.3x    frame= 8334 fps=344 q=-0.0 size=N/A time=00:05:47.59 bitrate=N/A speed=14.3x    frame= 8531 fps=345 q=-0.0 size=N/A time=00:05:55.81 bitrate=N/A speed=14.4x    frame= 8733 fps=345 q=-0.0 size=N/A time=00:06:04.23 bitrate=N/A speed=14.4x    frame= 8930 fps=346 q=-0.0 size=N/A time=00:06:12.45 bitrate=N/A speed=14.4x    frame= 9129 fps=347 q=-0.0 size=N/A time=00:06:20.75 bitrate=N/A speed=14.5x    frame= 9331 fps=348 q=-0.0 size=N/A time=00:06:29.18 bitrate=N/A speed=14.5x    frame= 9523 fps=348 q=-0.0 size=N/A time=00:06:37.18 bitrate=N/A speed=14.5x    frame= 9715 fps=349 q=-0.0 size=N/A time=00:06:45.19 bitrate=N/A speed=14.5x    frame= 9908 fps=349 q=-0.0 size=N/A time=00:06:53.24 bitrate=N/A speed=14.6x    frame=10103 fps=350 q=-0.0 size=N/A time=00:07:01.37 bitrate=N/A speed=14.6x    frame=10301 fps=350 q=-0.0 size=N/A time=00:07:09.63 bitrate=N/A speed=14.6x    frame=10490 fps=351 q=-0.0 size=N/A time=00:07:17.52 bitrate=N/A speed=14.6x    frame=10682 fps=351 q=-0.0 size=N/A time=00:07:25.52 bitrate=N/A speed=14.6x    frame=10882 fps=351 q=-0.0 size=N/A time=00:07:33.87 bitrate=N/A speed=14.7x    frame=11073 fps=352 q=-0.0 size=N/A time=00:07:41.83 bitrate=N/A speed=14.7x    frame=11264 fps=352 q=-0.0 size=N/A time=00:07:49.80 bitrate=N/A speed=14.7x    frame=11453 fps=352 q=-0.0 size=N/A time=00:07:57.68 bitrate=N/A speed=14.7x    frame=11630 fps=352 q=-0.0 size=N/A time=00:08:05.06 bitrate=N/A speed=14.7x    frame=11801 fps=352 q=-0.0 size=N/A time=00:08:12.20 bitrate=N/A speed=14.7x    frame=11972 fps=352 q=-0.0 size=N/A time=00:08:19.33 bitrate=N/A speed=14.7x    frame=12152 fps=352 q=-0.0 size=N/A time=00:08:26.83 bitrate=N/A speed=14.7x    frame=12327 fps=351 q=-0.0 size=N/A time=00:08:34.13 bitrate=N/A speed=14.7x    frame=12483 fps=351 q=-0.0 size=N/A time=00:08:40.64 bitrate=N/A speed=14.6x    frame=12667 fps=351 q=-0.0 size=N/A time=00:08:48.31 bitrate=N/A speed=14.6x    frame=12834 fps=350 q=-0.0 size=N/A time=00:08:55.28 bitrate=N/A speed=14.6x    frame=12993 fps=350 q=-0.0 size=N/A time=00:09:01.91 bitrate=N/A speed=14.6x    frame=13179 fps=350 q=-0.0 size=N/A time=00:09:09.67 bitrate=N/A speed=14.6x    frame=13328 fps=349 q=-0.0 size=N/A time=00:09:15.88 bitrate=N/A speed=14.6x    frame=13465 fps=348 q=-0.0 size=N/A time=00:09:21.60 bitrate=N/A speed=14.5x    frame=13645 fps=348 q=-0.0 size=N/A time=00:09:29.11 bitrate=N/A speed=14.5x    frame=13818 fps=348 q=-0.0 size=N/A time=00:09:36.32 bitrate=N/A speed=14.5x    frame=13982 fps=347 q=-0.0 size=N/A time=00:09:43.16 bitrate=N/A speed=14.5x    frame=14139 fps=347 q=-0.0 size=N/A time=00:09:49.71 bitrate=N/A speed=14.5x    frame=14306 fps=346 q=-0.0 size=N/A time=00:09:56.67 bitrate=N/A speed=14.5x    frame=14472 fps=346 q=-0.0 size=N/A time=00:10:03.60 bitrate=N/A speed=14.4x    frame=14662 fps=346 q=-0.0 size=N/A time=00:10:11.52 bitrate=N/A speed=14.4x    frame=14817 fps=346 q=-0.0 size=N/A time=00:10:17.99 bitrate=N/A speed=14.4x    frame=14981 fps=346 q=-0.0 size=N/A time=00:10:24.83 bitrate=N/A speed=14.4x    frame=15129 fps=345 q=-0.0 size=N/A time=00:10:31.00 bitrate=N/A speed=14.4x    frame=15285 fps=344 q=-0.0 size=N/A time=00:10:37.51 bitrate=N/A speed=14.4x    frame=15434 fps=344 q=-0.0 size=N/A time=00:10:43.72 bitrate=N/A speed=14.3x    frame=15606 fps=344 q=-0.0 size=N/A time=00:10:50.90 bitrate=N/A speed=14.3x    frame=15776 fps=344 q=-0.0 size=N/A time=00:10:57.99 bitrate=N/A speed=14.3x    frame=15945 fps=343 q=-0.0 size=N/A time=00:11:05.03 bitrate=N/A speed=14.3x    frame=16115 fps=343 q=-0.0 size=N/A time=00:11:12.12 bitrate=N/A speed=14.3x    frame=16293 fps=343 q=-0.0 size=N/A time=00:11:19.55 bitrate=N/A speed=14.3x    frame=16458 fps=343 q=-0.0 size=N/A time=00:11:26.43 bitrate=N/A speed=14.3x    frame=16632 fps=343 q=-0.0 size=N/A time=00:11:33.69 bitrate=N/A speed=14.3x    frame=16798 fps=343 q=-0.0 size=N/A time=00:11:40.61 bitrate=N/A speed=14.3x    frame=16984 fps=343 q=-0.0 size=N/A time=00:11:48.37 bitrate=N/A speed=14.3x    frame=17165 fps=343 q=-0.0 size=N/A time=00:11:55.92 bitrate=N/A speed=14.3x    frame=17341 fps=343 q=-0.0 size=N/A time=00:12:03.26 bitrate=N/A speed=14.3x    frame=17526 fps=343 q=-0.0 size=N/A time=00:12:10.98 bitrate=N/A speed=14.3x    frame=17700 fps=343 q=-0.0 size=N/A time=00:12:18.23 bitrate=N/A speed=14.3x    frame=17874 fps=343 q=-0.0 size=N/A time=00:12:25.49 bitrate=N/A speed=14.3x    frame=18042 fps=343 q=-0.0 size=N/A time=00:12:32.50 bitrate=N/A speed=14.3x    frame=18218 fps=343 q=-0.0 size=N/A time=00:12:39.84 bitrate=N/A speed=14.3x    frame=18400 fps=343 q=-0.0 size=N/A time=00:12:47.43 bitrate=N/A speed=14.3x    frame=18589 fps=343 q=-0.0 size=N/A time=00:12:55.31 bitrate=N/A speed=14.3x    frame=18760 fps=343 q=-0.0 size=N/A time=00:13:02.44 bitrate=N/A speed=14.3x    frame=18939 fps=343 q=-0.0 size=N/A time=00:13:09.91 bitrate=N/A speed=14.3x    frame=19134 fps=343 q=-0.0 size=N/A time=00:13:18.04 bitrate=N/A speed=14.3x    frame=19287 fps=343 q=-0.0 size=N/A time=00:13:24.42 bitrate=N/A speed=14.3x    frame=19470 fps=343 q=-0.0 size=N/A time=00:13:32.06 bitrate=N/A speed=14.3x    frame=19659 fps=343 q=-0.0 size=N/A time=00:13:39.94 bitrate=N/A speed=14.3x    frame=19830 fps=343 q=-0.0 size=N/A time=00:13:47.07 bitrate=N/A speed=14.3x    frame=20014 fps=343 q=-0.0 size=N/A time=00:13:54.75 bitrate=N/A speed=14.3x    frame=20206 fps=343 q=-0.0 size=N/A time=00:14:02.75 bitrate=N/A speed=14.3x    frame=20377 fps=343 q=-0.0 size=N/A time=00:14:09.89 bitrate=N/A speed=14.3x    frame=20531 fps=343 q=-0.0 size=N/A time=00:14:16.31 bitrate=N/A speed=14.3x    frame=20700 fps=343 q=-0.0 size=N/A time=00:14:23.36 bitrate=N/A speed=14.3x    frame=20892 fps=343 q=-0.0 size=N/A time=00:14:31.37 bitrate=N/A speed=14.3x    frame=21084 fps=343 q=-0.0 size=N/A time=00:14:39.37 bitrate=N/A speed=14.3x    frame=21279 fps=344 q=-0.0 size=N/A time=00:14:47.51 bitrate=N/A speed=14.3x    frame=21473 fps=344 q=-0.0 size=N/A time=00:14:55.60 bitrate=N/A speed=14.3x    frame=21661 fps=344 q=-0.0 size=N/A time=00:15:03.44 bitrate=N/A speed=14.4x    frame=21860 fps=344 q=-0.0 size=N/A time=00:15:11.74 bitrate=N/A speed=14.4x    frame=22063 fps=345 q=-0.0 size=N/A time=00:15:20.21 bitrate=N/A speed=14.4x    frame=22231 fps=345 q=-0.0 size=N/A time=00:15:27.21 bitrate=N/A speed=14.4x    frame=22395 fps=344 q=-0.0 size=N/A time=00:15:34.05 bitrate=N/A speed=14.4x    frame=22573 fps=344 q=-0.0 size=N/A time=00:15:41.48 bitrate=N/A speed=14.4x    frame=22746 fps=344 q=-0.0 size=N/A time=00:15:48.69 bitrate=N/A speed=14.4x    frame=22911 fps=344 q=-0.0 size=N/A time=00:15:55.57 bitrate=N/A speed=14.4x    frame=23095 fps=344 q=-0.0 size=N/A time=00:16:03.25 bitrate=N/A speed=14.4x    frame=23280 fps=344 q=-0.0 size=N/A time=00:16:10.97 bitrate=N/A speed=14.4x    frame=23468 fps=344 q=-0.0 size=N/A time=00:16:18.81 bitrate=N/A speed=14.4x    frame=23644 fps=344 q=-0.0 size=N/A time=00:16:26.15 bitrate=N/A speed=14.4x    frame=23810 fps=344 q=-0.0 size=N/A time=00:16:33.07 bitrate=N/A speed=14.4x    frame=23979 fps=344 q=-0.0 size=N/A time=00:16:40.12 bitrate=N/A speed=14.4x    frame=24158 fps=344 q=-0.0 size=N/A time=00:16:47.58 bitrate=N/A speed=14.4x    frame=24320 fps=344 q=-0.0 size=N/A time=00:16:54.34 bitrate=N/A speed=14.3x    frame=24514 fps=344 q=-0.0 size=N/A time=00:17:02.43 bitrate=N/A speed=14.4x    frame=24689 fps=344 q=-0.0 size=N/A time=00:17:09.73 bitrate=N/A speed=14.4x    frame=24865 fps=344 q=-0.0 size=N/A time=00:17:17.07 bitrate=N/A speed=14.4x    frame=25031 fps=344 q=-0.0 size=N/A time=00:17:24.00 bitrate=N/A speed=14.3x    frame=25221 fps=344 q=-0.0 size=N/A time=00:17:31.92 bitrate=N/A speed=14.4x    frame=25401 fps=344 q=-0.0 size=N/A time=00:17:39.43 bitrate=N/A speed=14.4x    frame=25551 fps=344 q=-0.0 size=N/A time=00:17:45.68 bitrate=N/A speed=14.3x    frame=25728 fps=344 q=-0.0 size=N/A time=00:17:53.07 bitrate=N/A speed=14.3x    frame=25909 fps=344 q=-0.0 size=N/A time=00:18:00.62 bitrate=N/A speed=14.3x    frame=26079 fps=344 q=-0.0 size=N/A time=00:18:07.71 bitrate=N/A speed=14.3x    frame=26252 fps=344 q=-0.0 size=N/A time=00:18:14.92 bitrate=N/A speed=14.3x    frame=26438 fps=344 q=-0.0 size=N/A time=00:18:22.68 bitrate=N/A speed=14.3x    frame=26623 fps=344 q=-0.0 size=N/A time=00:18:30.40 bitrate=N/A speed=14.3x    frame=26789 fps=344 q=-0.0 size=N/A time=00:18:37.32 bitrate=N/A speed=14.3x    frame=26946 fps=343 q=-0.0 size=N/A time=00:18:43.87 bitrate=N/A speed=14.3x    frame=27125 fps=344 q=-0.0 size=N/A time=00:18:51.33 bitrate=N/A speed=14.3x    frame=27309 fps=344 q=-0.0 size=N/A time=00:18:59.01 bitrate=N/A speed=14.3x    frame=27499 fps=344 q=-0.0 size=N/A time=00:19:06.93 bitrate=N/A speed=14.3x    frame=27684 fps=344 q=-0.0 size=N/A time=00:19:14.65 bitrate=N/A speed=14.3x    frame=27870 fps=344 q=-0.0 size=N/A time=00:19:22.41 bitrate=N/A speed=14.3x    frame=28051 fps=344 q=-0.0 size=N/A time=00:19:29.96 bitrate=N/A speed=14.4x    frame=28243 fps=344 q=-0.0 size=N/A time=00:19:37.96 bitrate=N/A speed=14.4x    frame=28439 fps=344 q=-0.0 size=N/A time=00:19:46.14 bitrate=N/A speed=14.4x    frame=28632 fps=345 q=-0.0 size=N/A time=00:19:54.19 bitrate=N/A speed=14.4x    frame=28801 fps=345 q=-0.0 size=N/A time=00:20:01.24 bitrate=N/A speed=14.4x    frame=28949 fps=344 q=-0.0 size=N/A time=00:20:07.41 bitrate=N/A speed=14.4x    frame=29105 fps=344 q=-0.0 size=N/A time=00:20:13.92 bitrate=N/A speed=14.3x    frame=29292 fps=344 q=-0.0 size=N/A time=00:20:21.72 bitrate=N/A speed=14.4x    frame=29474 fps=344 q=-0.0 size=N/A time=00:20:29.31 bitrate=N/A speed=14.4x    frame=29644 fps=344 q=-0.0 size=N/A time=00:20:36.40 bitrate=N/A speed=14.3x    frame=29819 fps=344 q=-0.0 size=N/A time=00:20:43.70 bitrate=N/A speed=14.3x    frame=29992 fps=344 q=-0.0 size=N/A time=00:20:50.91 bitrate=N/A speed=14.3x    frame=30145 fps=344 q=-0.0 size=N/A time=00:20:57.29 bitrate=N/A speed=14.3x    frame=30322 fps=344 q=-0.0 size=N/A time=00:21:04.68 bitrate=N/A speed=14.3x    frame=30521 fps=344 q=-0.0 size=N/A time=00:21:12.98 bitrate=N/A speed=14.3x    frame=30711 fps=344 q=-0.0 size=N/A time=00:21:20.90 bitrate=N/A speed=14.3x    frame=30897 fps=344 q=-0.0 size=N/A time=00:21:28.66 bitrate=N/A speed=14.4x    frame=31097 fps=344 q=-0.0 size=N/A time=00:21:37.00 bitrate=N/A speed=14.4x    frame=31283 fps=344 q=-0.0 size=N/A time=00:21:44.76 bitrate=N/A speed=14.4x    frame=31465 fps=345 q=-0.0 size=N/A time=00:21:52.35 bitrate=N/A speed=14.4x    frame=31657 fps=345 q=-0.0 size=N/A time=00:22:00.36 bitrate=N/A speed=14.4x    frame=31834 fps=345 q=-0.0 size=N/A time=00:22:07.74 bitrate=N/A speed=14.4x    frame=32011 fps=345 q=-0.0 size=N/A time=00:22:15.12 bitrate=N/A speed=14.4x    frame=32188 fps=345 q=-0.0 size=N/A time=00:22:22.50 bitrate=N/A speed=14.4x    frame=32356 fps=345 q=-0.0 size=N/A time=00:22:29.51 bitrate=N/A speed=14.4x    frame=32511 fps=344 q=-0.0 size=N/A time=00:22:35.97 bitrate=N/A speed=14.4x    frame=32658 fps=344 q=-0.0 size=N/A time=00:22:42.11 bitrate=N/A speed=14.3x    frame=32805 fps=344 q=-0.0 size=N/A time=00:22:48.24 bitrate=N/A speed=14.3x    frame=32951 fps=343 q=-0.0 size=N/A time=00:22:54.33 bitrate=N/A speed=14.3x    frame=33108 fps=343 q=-0.0 size=N/A time=00:23:00.87 bitrate=N/A speed=14.3x    frame=33257 fps=343 q=-0.0 size=N/A time=00:23:07.09 bitrate=N/A speed=14.3x    frame=33394 fps=342 q=-0.0 size=N/A time=00:23:12.80 bitrate=N/A speed=14.3x    frame=33539 fps=342 q=-0.0 size=N/A time=00:23:18.85 bitrate=N/A speed=14.3x    frame=33664 fps=342 q=-0.0 size=N/A time=00:23:24.06 bitrate=N/A speed=14.2x    frame=33785 fps=341 q=-0.0 size=N/A time=00:23:29.11 bitrate=N/A speed=14.2x    frame=33903 fps=340 q=-0.0 size=N/A time=00:23:34.03 bitrate=N/A speed=14.2x    frame=34053 fps=340 q=-0.0 size=N/A time=00:23:40.29 bitrate=N/A speed=14.2x    frame=34200 fps=340 q=-0.0 size=N/A time=00:23:46.42 bitrate=N/A speed=14.2x    frame=34331 fps=339 q=-0.0 size=N/A time=00:23:51.88 bitrate=N/A speed=14.2x    frame=34458 fps=339 q=-0.0 size=N/A time=00:23:57.18 bitrate=N/A speed=14.1x    frame=34609 fps=339 q=-0.0 size=N/A time=00:24:03.48 bitrate=N/A speed=14.1x    [Parsed_psnr_16 @ 000001b3de60a940] PSNR y:48.756474 u:50.339393 v:50.387760 average:49.229016 min:37.744385 max:inf
[out#0/null @ 000001b3d18cdec0] video:14903KiB audio:271276KiB subtitle:0KiB other streams:0KiB global headers:0KiB muxing overhead: unknown
frame=34683 fps=339 q=-0.0 Lsize=N/A time=00:24:06.57 bitrate=N/A speed=14.1x    
